<svg width="60" height="60" viewBox="0 0 60 60" fill="none" xmlns="http://www.w3.org/2000/svg">
<g filter="url(#filter0_d_471_1269)">
<rect x="10" y="10" width="40" height="40" rx="20" fill="white"/>
<rect x="10.5" y="10.5" width="39" height="39" rx="19.5" stroke="#4762FF"/>
</g>
<path d="M26.327 22.2939C25.9275 22.6819 25.9237 23.322 26.3186 23.7147L31.1891 28.5575C31.985 29.3489 31.974 30.64 31.1649 31.4177L26.3383 36.0569C25.9255 36.4537 25.8988 37.1053 26.2777 37.5347C26.6897 38.0014 27.4119 38.0187 27.8456 37.572L33.8465 31.3935C34.6002 30.6174 34.6002 29.3827 33.8465 28.6066L27.7354 22.3145C27.3521 21.9199 26.7216 21.9107 26.327 22.2939Z" fill="#4762FF"/>
<defs>
<filter id="filter0_d_471_1269" x="0" y="0" width="60" height="60" filterUnits="userSpaceOnUse" color-interpolation-filters="sRGB">
<feFlood flood-opacity="0" result="BackgroundImageFix"/>
<feColorMatrix in="SourceAlpha" type="matrix" values="0 0 0 0 0 0 0 0 0 0 0 0 0 0 0 0 0 0 127 0" result="hardAlpha"/>
<feOffset/>
<feGaussianBlur stdDeviation="5"/>
<feComposite in2="hardAlpha" operator="out"/>
<feColorMatrix type="matrix" values="0 0 0 0 0 0 0 0 0 0 0 0 0 0 0 0 0 0 0.15 0"/>
<feBlend mode="normal" in2="BackgroundImageFix" result="effect1_dropShadow_471_1269"/>
<feBlend mode="normal" in="SourceGraphic" in2="effect1_dropShadow_471_1269" result="shape"/>
</filter>
</defs>
</svg>
