<svg width="103" height="16" viewBox="0 0 103 16" fill="none" xmlns="http://www.w3.org/2000/svg">
<path d="M13.98 15H12.38L12 13.32C11.3333 14.08 10.6667 14.6067 10 14.9C9.33333 15.1933 8.56667 15.34 7.7 15.34C6.63333 15.34 5.67333 15.1467 4.82 14.76C3.98 14.36 3.26667 13.82 2.68 13.14C2.09333 12.46 1.64 11.6667 1.32 10.76C1.01333 9.85333 0.86 8.88667 0.86 7.86C0.86 6.84667 1.01333 5.88667 1.32 4.98C1.64 4.07333 2.09333 3.28 2.68 2.6C3.26667 1.92 3.98 1.38 4.82 0.979999C5.67333 0.58 6.63333 0.38 7.7 0.38C8.47333 0.38 9.20667 0.486666 9.9 0.699999C10.6067 0.899999 11.2333 1.20667 11.78 1.62C12.3267 2.02 12.78 2.52667 13.14 3.14C13.5 3.75333 13.7267 4.46 13.82 5.26H11.38C11.3133 4.79333 11.1667 4.38667 10.94 4.04C10.7267 3.68 10.4533 3.38 10.12 3.14C9.78667 2.9 9.41333 2.72 9 2.6C8.58667 2.48 8.15333 2.42 7.7 2.42C6.94 2.42 6.28 2.57333 5.72 2.88C5.17333 3.18667 4.72667 3.6 4.38 4.12C4.03333 4.62667 3.77333 5.20667 3.6 5.86C3.44 6.51333 3.36 7.18 3.36 7.86C3.36 8.54 3.44 9.20667 3.6 9.86C3.77333 10.5133 4.03333 11.1 4.38 11.62C4.72667 12.1267 5.17333 12.5333 5.72 12.84C6.28 13.1467 6.94 13.3 7.7 13.3C8.34 13.3133 8.90667 13.2333 9.4 13.06C9.89333 12.8733 10.3067 12.6133 10.64 12.28C10.9867 11.9333 11.2467 11.5133 11.42 11.02C11.5933 10.5267 11.6867 9.98 11.7 9.38H7.9V7.48H13.98V15ZM23.4758 8.92C23.4491 8.56 23.3691 8.21333 23.2358 7.88C23.1158 7.54667 22.9424 7.26 22.7158 7.02C22.5024 6.76667 22.2358 6.56667 21.9158 6.42C21.6091 6.26 21.2624 6.18 20.8758 6.18C20.4758 6.18 20.1091 6.25333 19.7758 6.4C19.4558 6.53333 19.1758 6.72667 18.9358 6.98C18.7091 7.22 18.5224 7.50667 18.3758 7.84C18.2424 8.17333 18.1691 8.53333 18.1558 8.92H23.4758ZM18.1558 10.42C18.1558 10.82 18.2091 11.2067 18.3158 11.58C18.4358 11.9533 18.6091 12.28 18.8358 12.56C19.0624 12.84 19.3491 13.0667 19.6958 13.24C20.0424 13.4 20.4558 13.48 20.9358 13.48C21.6024 13.48 22.1358 13.34 22.5358 13.06C22.9491 12.7667 23.2558 12.3333 23.4558 11.76H25.6158C25.4958 12.32 25.2891 12.82 24.9958 13.26C24.7024 13.7 24.3491 14.0733 23.9358 14.38C23.5224 14.6733 23.0558 14.8933 22.5358 15.04C22.0291 15.2 21.4958 15.28 20.9358 15.28C20.1224 15.28 19.4024 15.1467 18.7758 14.88C18.1491 14.6133 17.6158 14.24 17.1758 13.76C16.7491 13.28 16.4224 12.7067 16.1958 12.04C15.9824 11.3733 15.8758 10.64 15.8758 9.84C15.8758 9.10667 15.9891 8.41333 16.2158 7.76C16.4558 7.09333 16.7891 6.51333 17.2158 6.02C17.6558 5.51333 18.1824 5.11333 18.7958 4.82C19.4091 4.52667 20.1024 4.38 20.8758 4.38C21.6891 4.38 22.4158 4.55333 23.0558 4.9C23.7091 5.23333 24.2491 5.68 24.6758 6.24C25.1024 6.8 25.4091 7.44667 25.5958 8.18C25.7958 8.9 25.8491 9.64667 25.7558 10.42H18.1558ZM27.4891 4.66H29.6491V6.18L29.6891 6.22C30.0357 5.64667 30.4891 5.2 31.0491 4.88C31.6091 4.54667 32.2291 4.38 32.9091 4.38C34.0424 4.38 34.9357 4.67333 35.5891 5.26C36.2424 5.84667 36.5691 6.72667 36.5691 7.9V15H34.2891V8.5C34.2624 7.68667 34.0891 7.1 33.7691 6.74C33.4491 6.36667 32.9491 6.18 32.2691 6.18C31.8824 6.18 31.5357 6.25333 31.2291 6.4C30.9224 6.53333 30.6624 6.72667 30.4491 6.98C30.2357 7.22 30.0691 7.50667 29.9491 7.84C29.8291 8.17333 29.7691 8.52667 29.7691 8.9V15H27.4891V4.66ZM46.0734 8.92C46.0468 8.56 45.9668 8.21333 45.8334 7.88C45.7134 7.54667 45.5401 7.26 45.3134 7.02C45.1001 6.76667 44.8334 6.56667 44.5134 6.42C44.2068 6.26 43.8601 6.18 43.4734 6.18C43.0734 6.18 42.7068 6.25333 42.3734 6.4C42.0534 6.53333 41.7734 6.72667 41.5334 6.98C41.3068 7.22 41.1201 7.50667 40.9734 7.84C40.8401 8.17333 40.7668 8.53333 40.7534 8.92H46.0734ZM40.7534 10.42C40.7534 10.82 40.8068 11.2067 40.9134 11.58C41.0334 11.9533 41.2068 12.28 41.4334 12.56C41.6601 12.84 41.9468 13.0667 42.2934 13.24C42.6401 13.4 43.0534 13.48 43.5334 13.48C44.2001 13.48 44.7334 13.34 45.1334 13.06C45.5468 12.7667 45.8534 12.3333 46.0534 11.76H48.2134C48.0934 12.32 47.8868 12.82 47.5934 13.26C47.3001 13.7 46.9468 14.0733 46.5334 14.38C46.1201 14.6733 45.6534 14.8933 45.1334 15.04C44.6268 15.2 44.0934 15.28 43.5334 15.28C42.7201 15.28 42.0001 15.1467 41.3734 14.88C40.7468 14.6133 40.2134 14.24 39.7734 13.76C39.3468 13.28 39.0201 12.7067 38.7934 12.04C38.5801 11.3733 38.4734 10.64 38.4734 9.84C38.4734 9.10667 38.5868 8.41333 38.8134 7.76C39.0534 7.09333 39.3868 6.51333 39.8134 6.02C40.2534 5.51333 40.7801 5.11333 41.3934 4.82C42.0068 4.52667 42.7001 4.38 43.4734 4.38C44.2868 4.38 45.0134 4.55333 45.6534 4.9C46.3068 5.23333 46.8468 5.68 47.2734 6.24C47.7001 6.8 48.0068 7.44667 48.1934 8.18C48.3934 8.9 48.4468 9.64667 48.3534 10.42H40.7534ZM50.0867 4.66H52.2267V6.66H52.2667C52.3334 6.38 52.4601 6.10667 52.6467 5.84C52.8467 5.57333 53.0801 5.33333 53.3467 5.12C53.6267 4.89333 53.9334 4.71333 54.2667 4.58C54.6001 4.44667 54.9401 4.38 55.2867 4.38C55.5534 4.38 55.7334 4.38667 55.8267 4.4C55.9334 4.41333 56.0401 4.42667 56.1467 4.44V6.64C55.9867 6.61333 55.8201 6.59333 55.6467 6.58C55.4867 6.55333 55.3267 6.54 55.1667 6.54C54.7801 6.54 54.4134 6.62 54.0667 6.78C53.7334 6.92667 53.4401 7.15333 53.1867 7.46C52.9334 7.75333 52.7334 8.12 52.5867 8.56C52.4401 9 52.3667 9.50667 52.3667 10.08V15H50.0867V4.66ZM65.778 12.7C65.778 12.98 65.8113 13.18 65.878 13.3C65.958 13.42 66.1046 13.48 66.318 13.48C66.3846 13.48 66.4646 13.48 66.558 13.48C66.6513 13.48 66.758 13.4667 66.878 13.44V15.02C66.798 15.0467 66.6913 15.0733 66.558 15.1C66.438 15.14 66.3113 15.1733 66.178 15.2C66.0446 15.2267 65.9113 15.2467 65.778 15.26C65.6446 15.2733 65.5313 15.28 65.438 15.28C64.9713 15.28 64.5846 15.1867 64.278 15C63.9713 14.8133 63.7713 14.4867 63.678 14.02C63.2246 14.46 62.6646 14.78 61.998 14.98C61.3446 15.18 60.7113 15.28 60.098 15.28C59.6313 15.28 59.1846 15.2133 58.758 15.08C58.3313 14.96 57.9513 14.78 57.618 14.54C57.298 14.2867 57.038 13.9733 56.838 13.6C56.6513 13.2133 56.558 12.7667 56.558 12.26C56.558 11.62 56.6713 11.1 56.898 10.7C57.138 10.3 57.4446 9.98667 57.818 9.76C58.2046 9.53333 58.6313 9.37333 59.098 9.28C59.578 9.17333 60.058 9.09333 60.538 9.04C60.9513 8.96 61.3446 8.90667 61.718 8.88C62.0913 8.84 62.418 8.78 62.698 8.7C62.9913 8.62 63.218 8.5 63.378 8.34C63.5513 8.16667 63.638 7.91333 63.638 7.58C63.638 7.28667 63.5646 7.04667 63.418 6.86C63.2846 6.67333 63.1113 6.53333 62.898 6.44C62.698 6.33333 62.4713 6.26667 62.218 6.24C61.9646 6.2 61.7246 6.18 61.498 6.18C60.858 6.18 60.3313 6.31333 59.918 6.58C59.5046 6.84667 59.2713 7.26 59.218 7.82H56.938C56.978 7.15333 57.138 6.6 57.418 6.16C57.698 5.72 58.0513 5.36667 58.478 5.1C58.918 4.83333 59.4113 4.64667 59.958 4.54C60.5046 4.43333 61.0646 4.38 61.638 4.38C62.1446 4.38 62.6446 4.43333 63.138 4.54C63.6313 4.64667 64.0713 4.82 64.458 5.06C64.858 5.3 65.178 5.61333 65.418 6C65.658 6.37333 65.778 6.83333 65.778 7.38V12.7ZM63.498 9.82C63.1513 10.0467 62.7246 10.1867 62.218 10.24C61.7113 10.28 61.2046 10.3467 60.698 10.44C60.458 10.48 60.2246 10.54 59.998 10.62C59.7713 10.6867 59.5713 10.7867 59.398 10.92C59.2246 11.04 59.0846 11.2067 58.978 11.42C58.8846 11.62 58.838 11.8667 58.838 12.16C58.838 12.4133 58.9113 12.6267 59.058 12.8C59.2046 12.9733 59.378 13.1133 59.578 13.22C59.7913 13.3133 60.018 13.38 60.258 13.42C60.5113 13.46 60.738 13.48 60.938 13.48C61.1913 13.48 61.4646 13.4467 61.758 13.38C62.0513 13.3133 62.3246 13.2 62.578 13.04C62.8446 12.88 63.0646 12.68 63.238 12.44C63.4113 12.1867 63.498 11.88 63.498 11.52V9.82ZM67.1913 4.66H68.9113V1.56H71.1913V4.66H73.2513V6.36H71.1913V11.88C71.1913 12.12 71.1979 12.3267 71.2113 12.5C71.2379 12.6733 71.2846 12.82 71.3513 12.94C71.4313 13.06 71.5446 13.1533 71.6913 13.22C71.8379 13.2733 72.0379 13.3 72.2913 13.3C72.4513 13.3 72.6113 13.3 72.7713 13.3C72.9313 13.2867 73.0913 13.26 73.2513 13.22V14.98C72.9979 15.0067 72.7513 15.0333 72.5113 15.06C72.2713 15.0867 72.0246 15.1 71.7713 15.1C71.1713 15.1 70.6846 15.0467 70.3113 14.94C69.9513 14.82 69.6646 14.6533 69.4513 14.44C69.2513 14.2133 69.1113 13.9333 69.0313 13.6C68.9646 13.2667 68.9246 12.8867 68.9113 12.46V6.36H67.1913V4.66ZM79.6314 15.28C78.8047 15.28 78.0647 15.1467 77.4114 14.88C76.7714 14.6 76.2247 14.22 75.7714 13.74C75.3314 13.26 74.9914 12.6867 74.7514 12.02C74.5247 11.3533 74.4114 10.62 74.4114 9.82C74.4114 9.03333 74.5247 8.30667 74.7514 7.64C74.9914 6.97333 75.3314 6.4 75.7714 5.92C76.2247 5.44 76.7714 5.06667 77.4114 4.8C78.0647 4.52 78.8047 4.38 79.6314 4.38C80.4581 4.38 81.1914 4.52 81.8314 4.8C82.4847 5.06667 83.0314 5.44 83.4714 5.92C83.9247 6.4 84.2647 6.97333 84.4914 7.64C84.7314 8.30667 84.8514 9.03333 84.8514 9.82C84.8514 10.62 84.7314 11.3533 84.4914 12.02C84.2647 12.6867 83.9247 13.26 83.4714 13.74C83.0314 14.22 82.4847 14.6 81.8314 14.88C81.1914 15.1467 80.4581 15.28 79.6314 15.28ZM79.6314 13.48C80.1381 13.48 80.5781 13.3733 80.9514 13.16C81.3247 12.9467 81.6314 12.6667 81.8714 12.32C82.1114 11.9733 82.2847 11.5867 82.3914 11.16C82.5114 10.72 82.5714 10.2733 82.5714 9.82C82.5714 9.38 82.5114 8.94 82.3914 8.5C82.2847 8.06 82.1114 7.67333 81.8714 7.34C81.6314 6.99333 81.3247 6.71333 80.9514 6.5C80.5781 6.28667 80.1381 6.18 79.6314 6.18C79.1247 6.18 78.6847 6.28667 78.3114 6.5C77.9381 6.71333 77.6314 6.99333 77.3914 7.34C77.1514 7.67333 76.9714 8.06 76.8514 8.5C76.7447 8.94 76.6914 9.38 76.6914 9.82C76.6914 10.2733 76.7447 10.72 76.8514 11.16C76.9714 11.5867 77.1514 11.9733 77.3914 12.32C77.6314 12.6667 77.9381 12.9467 78.3114 13.16C78.6847 13.3733 79.1247 13.48 79.6314 13.48ZM86.7469 4.66H88.8869V6.66H88.9269C88.9935 6.38 89.1202 6.10667 89.3069 5.84C89.5069 5.57333 89.7402 5.33333 90.0069 5.12C90.2869 4.89333 90.5935 4.71333 90.9269 4.58C91.2602 4.44667 91.6002 4.38 91.9469 4.38C92.2135 4.38 92.3935 4.38667 92.4869 4.4C92.5935 4.41333 92.7002 4.42667 92.8069 4.44V6.64C92.6469 6.61333 92.4802 6.59333 92.3069 6.58C92.1469 6.55333 91.9869 6.54 91.8269 6.54C91.4402 6.54 91.0735 6.62 90.7269 6.78C90.3935 6.92667 90.1002 7.15333 89.8469 7.46C89.5935 7.75333 89.3935 8.12 89.2469 8.56C89.1002 9 89.0269 9.50667 89.0269 10.08V15H86.7469V4.66ZM95.4981 11.68C95.5648 12.3467 95.8181 12.8133 96.2581 13.08C96.6981 13.3467 97.2248 13.48 97.8381 13.48C98.0515 13.48 98.2915 13.4667 98.5581 13.44C98.8381 13.4 99.0981 13.3333 99.3381 13.24C99.5781 13.1467 99.7715 13.0133 99.9181 12.84C100.078 12.6533 100.151 12.4133 100.138 12.12C100.125 11.8267 100.018 11.5867 99.8181 11.4C99.6181 11.2133 99.3581 11.0667 99.0381 10.96C98.7315 10.84 98.3781 10.74 97.9781 10.66C97.5781 10.58 97.1715 10.4933 96.7581 10.4C96.3315 10.3067 95.9181 10.1933 95.5181 10.06C95.1315 9.92667 94.7781 9.74667 94.4581 9.52C94.1515 9.29333 93.9048 9.00667 93.7181 8.66C93.5315 8.3 93.4381 7.86 93.4381 7.34C93.4381 6.78 93.5715 6.31333 93.8381 5.94C94.1181 5.55333 94.4648 5.24667 94.8781 5.02C95.3048 4.78 95.7715 4.61333 96.2781 4.52C96.7981 4.42667 97.2915 4.38 97.7581 4.38C98.2915 4.38 98.7981 4.44 99.2781 4.56C99.7715 4.66667 100.211 4.84667 100.598 5.1C100.998 5.35333 101.325 5.68667 101.578 6.1C101.845 6.5 102.011 6.98667 102.078 7.56H99.6981C99.5915 7.01333 99.3381 6.64667 98.9381 6.46C98.5515 6.27333 98.1048 6.18 97.5981 6.18C97.4381 6.18 97.2448 6.19333 97.0181 6.22C96.8048 6.24667 96.5981 6.3 96.3981 6.38C96.2115 6.44667 96.0515 6.55333 95.9181 6.7C95.7848 6.83333 95.7181 7.01333 95.7181 7.24C95.7181 7.52 95.8115 7.74667 95.9981 7.92C96.1981 8.09333 96.4515 8.24 96.7581 8.36C97.0781 8.46667 97.4381 8.56 97.8381 8.64C98.2381 8.72 98.6515 8.80667 99.0781 8.9C99.4915 8.99333 99.8981 9.10667 100.298 9.24C100.698 9.37333 101.051 9.55333 101.358 9.78C101.678 10.0067 101.931 10.2933 102.118 10.64C102.318 10.9867 102.418 11.4133 102.418 11.92C102.418 12.5333 102.278 13.0533 101.998 13.48C101.718 13.9067 101.351 14.2533 100.898 14.52C100.458 14.7867 99.9648 14.98 99.4181 15.1C98.8715 15.22 98.3315 15.28 97.7981 15.28C97.1448 15.28 96.5381 15.2067 95.9781 15.06C95.4315 14.9133 94.9515 14.6933 94.5381 14.4C94.1381 14.0933 93.8181 13.72 93.5781 13.28C93.3515 12.8267 93.2315 12.2933 93.2181 11.68H95.4981Z" fill="#333333"/>
</svg>
